<svg width="80" height="80" viewBox="0 0 80 80" fill="none" xmlns="http://www.w3.org/2000/svg">
<mask id="mask0" mask-type="alpha" maskUnits="userSpaceOnUse" x="0" y="0" width="80" height="80">
<path d="M80 40C80 17.9086 62.0914 0 40 0C17.9086 0 0 17.9086 0 40C0 62.0914 17.9086 80 40 80C62.0914 80 80 62.0914 80 40Z" fill="white"/>
</mask>
<g mask="url(#mask0)">
<path d="M80 0H0V80H80V0Z" fill="#FFB782"/>
<path d="M57.3609 98.8503C75.7007 82.9077 77.6441 55.1163 61.7015 36.7765C45.7589 18.4367 17.9675 16.4933 -0.372307 32.4359C-18.7122 48.3785 -20.6555 76.1698 -4.71293 94.5097C11.2296 112.85 39.021 114.793 57.3609 98.8503Z" fill="#C9D0E6"/>
<path d="M26.1082 52.6516C25.7625 54.8345 26.5871 57.1112 28.4007 58.9807C30.2143 60.8502 32.8683 62.1595 35.7789 62.6205C38.6895 63.0815 41.6182 62.6564 43.9207 61.4388C46.2233 60.2213 47.7111 58.3109 48.0568 56.1279" fill="black"/>
<path d="M24.5541 41.1558C24.7461 39.9436 24.1647 38.8442 23.2556 38.7002C22.3464 38.5562 21.4538 39.4222 21.2618 40.6344C21.0698 41.8466 21.6511 42.946 22.5603 43.09C23.4694 43.234 24.3621 42.368 24.5541 41.1558Z" fill="black"/>
<path d="M55.2822 46.0226C55.4741 44.8105 54.8928 43.7111 53.9836 43.5671C53.0745 43.4231 52.1819 44.289 51.9899 45.5012C51.7979 46.7134 52.3792 47.8128 53.2884 47.9568C54.1975 48.1008 55.0902 47.2348 55.2822 46.0226Z" fill="black"/>
</g>
</svg>
