<svg width="80" height="80" viewBox="0 0 80 80" fill="none" xmlns="http://www.w3.org/2000/svg">
<mask id="mask0" mask-type="alpha" maskUnits="userSpaceOnUse" x="0" y="0" width="80" height="80">
<path d="M80 40C80 17.9086 62.0914 0 40 0C17.9086 0 0 17.9086 0 40C0 62.0914 17.9086 80 40 80C62.0914 80 80 62.0914 80 40Z" fill="white"/>
</mask>
<g mask="url(#mask0)">
<path d="M80 0H0V80H80V0Z" fill="#A1DDFF"/>
<path d="M7.58271 25.5788L21.9796 87.9385C23.9674 96.5485 32.5586 101.917 41.1687 99.9292L103.528 85.5323C112.138 83.5445 117.507 74.9532 115.519 66.3432L101.122 3.98346C99.1345 -4.62661 90.5432 -9.99504 81.9331 -8.00725L19.5734 6.38962C10.9633 8.37742 5.59492 16.9687 7.58271 25.5788Z" fill="#FFB782"/>
<path d="M35.937 53.0406C35.6677 55.2343 36.5713 57.4808 38.449 59.2859C40.3268 61.091 43.0249 62.3068 45.9497 62.666C48.8746 63.0251 51.7867 62.4981 54.0454 61.2009C56.304 59.9037 57.7243 57.9425 57.9936 55.7489" fill="black"/>
<path d="M38.6648 39.9421C38.8143 38.7239 38.195 37.6455 37.2814 37.5333C36.3677 37.4211 35.5059 38.3177 35.3563 39.5359C35.2067 40.754 35.8261 41.8325 36.7397 41.9446C37.6533 42.0568 38.5152 41.1602 38.6648 39.9421Z" fill="black"/>
<path d="M60.7214 42.6503C60.8709 41.4321 60.2516 40.3537 59.3379 40.2415C58.4243 40.1293 57.5624 41.0259 57.4129 42.244C57.2633 43.4622 57.8827 44.5406 58.7963 44.6528C59.7099 44.765 60.5718 43.8684 60.7214 42.6503Z" fill="black"/>
</g>
</svg>
