<svg width="80" height="80" viewBox="0 0 80 80" fill="none" xmlns="http://www.w3.org/2000/svg">
<mask id="mask0" mask-type="alpha" maskUnits="userSpaceOnUse" x="0" y="0" width="80" height="80">
<path d="M80 40C80 17.9086 62.0914 0 40 0C17.9086 0 0 17.9086 0 40C0 62.0914 17.9086 80 40 80C62.0914 80 80 62.0914 80 40Z" fill="white"/>
</mask>
<g mask="url(#mask0)">
<path d="M80 0H0V80H80V0Z" fill="#8A90A4"/>
<path d="M102.996 55.4731L69.3466 7.41621C64.7005 0.780931 55.5552 -0.831638 48.9199 3.81443L0.86299 37.4643C-5.77228 42.1103 -7.38485 51.2557 -2.73878 57.8909L30.911 105.948C35.5571 112.583 44.7024 114.196 51.3377 109.55L99.3946 75.8998C106.03 71.2537 107.642 62.1084 102.996 55.4731Z" fill="#A1DDFF"/>
<path d="M44.0994 45.6813C43.9067 47.8831 44.8882 50.0966 46.8278 51.8351C48.7674 53.5736 51.5063 54.6945 54.4419 54.9514C57.3775 55.2082 60.2695 54.5799 62.4815 53.2046C64.6935 51.8294 66.0444 49.8199 66.237 47.6181" fill="black"/>
<path d="M50.6022 35.0967C50.7092 33.8741 50.0525 32.8179 49.1355 32.7377C48.2186 32.6574 47.3885 33.5835 47.2815 34.8062C47.1746 36.0288 47.8312 37.085 48.7482 37.1652C49.6652 37.2454 50.4952 36.3193 50.6022 35.0967Z" fill="black"/>
<path d="M63.8848 36.2588C63.9917 35.0362 63.3351 33.98 62.4181 33.8998C61.5012 33.8196 60.6711 34.7457 60.5641 35.9683C60.4572 37.1909 61.1138 38.2471 62.0308 38.3273C62.9478 38.4075 63.7778 37.4814 63.8848 36.2588Z" fill="black"/>
</g>
</svg>
