<svg width="80" height="80" viewBox="0 0 80 80" fill="none" xmlns="http://www.w3.org/2000/svg">
<mask id="mask0" mask-type="alpha" maskUnits="userSpaceOnUse" x="0" y="0" width="80" height="80">
<path d="M80 40C80 17.9086 62.0914 0 40 0C17.9086 0 0 17.9086 0 40C0 62.0914 17.9086 80 40 80C62.0914 80 80 62.0914 80 40Z" fill="white"/>
</mask>
<g mask="url(#mask0)">
<path d="M80 0H0V80H80V0Z" fill="#C9D0E6"/>
<path d="M19.2861 16.7916C-0.8954 25.7769 -9.97164 49.4213 -0.986263 69.6028C7.99912 89.7843 31.6435 98.8606 51.825 89.8752C72.0065 80.8898 81.0827 57.2454 72.0974 37.0639C63.112 16.8824 39.4676 7.80617 19.2861 16.7916Z" fill="#FFA9C8"/>
<path d="M15.3841 47.7153C15.1531 49.9133 16.0958 52.1437 18.0047 53.9157C19.9137 55.6878 22.6326 56.8564 25.5633 57.1644C28.494 57.4724 31.3965 56.8947 33.6321 55.5582C35.8678 54.2218 37.2536 52.2362 37.4846 50.0381" fill="black"/>
<path d="M19.6284 39.2235C19.7566 38.0029 19.1185 36.9355 18.2031 36.8393C17.2877 36.743 16.4416 37.6545 16.3133 38.8751C16.185 40.0957 16.8231 41.1631 17.7385 41.2594C18.654 41.3556 19.5001 40.4441 19.6284 39.2235Z" fill="black"/>
<path d="M37.3087 41.0818C37.437 39.8612 36.7989 38.7937 35.8835 38.6975C34.9681 38.6013 34.122 39.5128 33.9937 40.7334C33.8654 41.9539 34.5035 43.0214 35.4189 43.1176C36.3343 43.2138 37.1805 42.3024 37.3087 41.0818Z" fill="black"/>
</g>
</svg>
